<svg viewBox="0 0 41.59 30.11" xmlns="http://www.w3.org/2000/svg">
    <g fill="#b97f5c">
        <path d="m1.7 0h38.36v.35a3.1 3.1 0 0 1 -.27.34l-17.46 16.85a1.75 1.75 0 0 1 -2.79 0l-17.45-16.77c-.15-.14-.28-.31-.43-.46 0-.1 0-.2 0-.3"/>
        <path d="m15.52 16.14c1 1 2 2.12 3.06 3.16a3.07 3.07 0 0 0 4.69 0q1.56-1.53 3.1-3.08c.05 0 .12-.05.08 0l13.64 13.67a8.56 8.56 0 0 1 -1.33.21h-35.9a9.76 9.76 0 0 1 -1.18-.1z"/>
        <path d="m.31 1.21 13.82 13.79-13.82 13.81a8 8 0 0 1 -.31-1.47q0-12.34 0-24.61a8.83 8.83 0 0 1 .3-1.52"/>
        <path d="m27.84 14.94 13.52-13.49a10.57 10.57 0 0 1 .22 1.55q0 12.06 0 24.13a10 10 0 0 1 -.18 1.41z"/>
    </g>
</svg>
