<svg viewBox="0 0 39.99 39.93" xmlns="http://www.w3.org/2000/svg">
    <path d="m0 9.75a12.34 12.34 0 0 1 3.36-8.1 4.28 4.28 0 0 1 2.48-1.25 23.19 23.19 0 0 1 2.74-.4 1.23 1.23 0 0 1 .84.41 6 6 0 0 1 .76 1.15c1.29 2.22 2.55 4.44 3.82 6.65.71 1.2.72 1.76-.29 2.76-.79.78-1.67 1.45-2.5 2.18-.37.32-.73.63-1.07 1-.92.94-1 1.38-.33 2.55s1.21 2.09 1.86 3.11a27.45 27.45 0 0 0 9.9 9.34c.73.42 1.46.83 2.21 1.22a1.32 1.32 0 0 0 1.71-.3c.7-.76 1.36-1.54 2-2.31.48-.54.95-1.11 1.48-1.6 1-.93 1.48-.93 2.65-.24 2 1.17 4 2.32 5.94 3.48.56.33 1.13.64 1.68 1a1.27 1.27 0 0 1 .76 1.22 10.18 10.18 0 0 1 -1 3.93 4.87 4.87 0 0 1 -1.41 1.62 11.64 11.64 0 0 1 -7.74 2.75 14.73 14.73 0 0 1 -4.52-1.05 43.36 43.36 0 0 1 -6.53-2.74 40.52 40.52 0 0 1 -8.45-6.71 37.5 37.5 0 0 1 -6.5-8.23 39.12 39.12 0 0 1 -3.65-9.7 11.92 11.92 0 0 1 -.2-1.74" fill="#b97f5c"/>
</svg>
